# xmcd CD database file
#
# Track frame offsets:
#	150
#	15716
#	31352
#	50423
#	69074
#	84634
#
# Disc length: 1364 seconds
#
# Revision: 0
# Processed by: cddbd v1.5.2PL0 Copyright (c) Steve Scherf et al.
# Submitted via: cdripper 1,0,33,916
#
DISCID=40055206
DTITLE=Mistin - Mistin
DYEAR=2006
DGENRE=Country
TTITLE0=Head Over Heels
TTITLE1=Down That Road
TTITLE2=Her Heart's On The Land
TTITLE3=Out Of My Dreams
TTITLE4=Legend
TTITLE5=The Sad And The Lonely
EXTD=YEAR: 2006
EXTT0=
EXTT1=
EXTT2=
EXTT3=
EXTT4=
EXTT5=
PLAYORDER=
